<?xml version="1.0" encoding="UTF-8" standalone="no"?>
<svg
   width="12"
   height="10"
   viewBox="0 0 12 10"
   fill="none"
   version="1.1"
   id="svg4"
   sodipodi:docname="check.svg"
   inkscape:version="1.2.2 (732a01da63, 2022-12-09)"
   xmlns:inkscape="http://www.inkscape.org/namespaces/inkscape"
   xmlns:sodipodi="http://sodipodi.sourceforge.net/DTD/sodipodi-0.dtd"
   xmlns="http://www.w3.org/2000/svg"
   xmlns:svg="http://www.w3.org/2000/svg">
  <defs
     id="defs8" />
  <sodipodi:namedview
     id="namedview6"
     pagecolor="#505050"
     bordercolor="#eeeeee"
     borderopacity="1"
     inkscape:showpageshadow="0"
     inkscape:pageopacity="0"
     inkscape:pagecheckerboard="0"
     inkscape:deskcolor="#505050"
     showgrid="false"
     inkscape:zoom="41.05"
     inkscape:cx="3.8733252"
     inkscape:cy="4.7137637"
     inkscape:window-width="1920"
     inkscape:window-height="986"
     inkscape:window-x="-11"
     inkscape:window-y="1609"
     inkscape:window-maximized="1"
     inkscape:current-layer="svg4" />
  <path
     d="M3.88449 6.17415L4.05747 6.33993L4.23045 6.17415L9.78972 0.846274L11.2637 2.25889L5.71977 7.57203L4.06938 9.15373L2.40709 7.56062L0.736313 5.95938L2.19836 4.5582L3.88449 6.17415Z"
     fill="white"
     stroke="#01B754"
     stroke-width="0.5"
     id="path2"
     style="fill:#241c1c" />
  <path
     style="fill:#241c1c;stroke-width:0.0243605"
     d="M 2.228989,7.7203272 C 1.2241169,6.7561113 0.40715712,5.9592385 0.41352279,5.9494989 0.43154683,5.9219218 2.1721618,4.2517245 2.1904162,4.2444909 c 0.00891,-0.00353 0.425723,0.385627 0.9262413,0.864799 0.5005184,0.479172 0.9243108,0.8712217 0.9417613,0.8712217 0.01745,0 1.3100743,-1.2250305 2.8724976,-2.7222899 1.5624234,-1.4972595 2.8488553,-2.72228991 2.8587374,-2.72228991 0.027786,0 1.8084412,1.71046391 1.8006562,1.72967621 C 11.581017,2.2885419 4.0933281,9.46282 4.0724879,9.4687576 4.0634358,9.4713369 3.2338611,8.684543 2.228989,7.7203272 Z M 7.4960363,5.5434987 C 9.3689532,3.7489391 10.904384,2.2736057 10.908105,2.2649798 10.92079,2.2355761 9.8079354,1.1920456 9.7766833,1.2040382 9.7596151,1.2105879 8.4690443,2.4395585 6.9087484,3.935084 5.3484524,5.4306093 4.065084,6.6538507 4.0568188,6.6533978 4.0485532,6.6529447 3.6291588,6.2572073 3.1248309,5.7739808 2.6205031,5.290754 2.1999648,4.8983705 2.1903014,4.9020173 c -0.046955,0.01772 -1.0893176,1.0335347 -1.08587,1.0582139 0.00488,0.034942 2.9447099,2.8580735 2.9689496,2.8510967 0.00954,-0.00275 1.5497381,-1.4732699 3.4226553,-3.2678292 z"
     id="path929" />
  <path
     style="fill:#241c1c;stroke-width:0.0243605"
     d=""
     id="path931" />
  <path
     style="fill:#241c1c;stroke-width:0.0243605"
     d="M 3.8568621,9.2526015 C 2.4044692,7.8715649 0.54547193,6.080218 0.4692552,5.9882726 0.44390906,5.9576957 0.49811364,5.8938273 0.8103027,5.5864209 1.4009664,5.0048063 2.1707809,4.2752741 2.1938467,4.2752741 c 0.01163,0 0.3586438,0.3191688 0.7711406,0.7092638 0.8089971,0.7650623 1.0724882,1.0081539 1.0927557,1.0081539 0.024684,0 0.6871106,-0.6272991 3.6401864,-3.4471533 C 8.7095006,1.5796021 9.5947016,0.73626578 9.6650426,0.67145785 L 9.7929354,0.55362524 9.9208283,0.67142968 c 0.1602597,0.14761848 1.6504267,1.57545972 1.6504267,1.58139852 0,0.021342 -1.111928,1.0912878 -4.8479254,4.6648843 C 5.4840853,8.1030879 4.380533,9.1593544 4.2709912,9.2649712 L 4.0718239,9.4570022 Z M 4.6673542,8.2655445 C 5.3589035,7.6088748 6.261477,6.7448412 8.670963,4.4328894 9.6549742,3.4887101 10.563019,2.6175396 10.68884,2.4969549 10.848521,2.3439197 10.913042,2.2661882 10.902494,2.2395566 10.88902,2.205536 10.141546,1.4927201 9.908648,1.2917918 9.6990105,1.1109312 9.8488882,1.2660868 10.349524,1.7481939 L 10.881753,2.2607238 7.4855912,5.5152585 C 5.6177023,7.3052524 4.0806767,8.7697929 4.0699793,8.7697929 c -0.010698,0 -0.6794626,-0.6323598 -1.4861445,-1.4052443 L 1.1171402,5.9593045 1.5390817,5.554961 C 1.7711495,5.332572 2.0158343,5.1003089 2.0828258,5.0388205 L 2.2046285,4.9270236 3.1276502,5.8122721 4.0506716,6.6975208 4.1422278,6.6191622 C 4.3414178,6.4486855 9.7918119,1.2087831 9.7810948,1.1980659 9.7681123,1.1850834 9.6970387,1.2523617 6.9549272,3.8733252 3.9208356,6.7733688 4.0727408,6.6310726 4.034379,6.6091337 4.0155211,6.5983488 3.705735,6.3095162 3.3459656,5.9672833 2.3922308,5.0600373 2.2154343,4.8964677 2.1885601,4.8964677 c -0.032466,0 -1.0379518,0.9670429 -1.0723881,1.0313876 -0.030633,0.057238 -0.14372148,-0.057798 1.4183185,1.4427454 1.0639867,1.0220984 1.515511,1.4479133 1.5353339,1.4479133 0.00835,0 0.2772421,-0.2488363 0.5975298,-0.5529695 z"
     id="path933" />
  <path
     style="fill:#241c1c;stroke-width:0.0243605"
     d="M 3.8568268,9.2545676 C 2.8598811,8.305608 1.4026523,6.9059747 0.96587089,6.4778741 L 0.43356881,5.956151 0.83188794,5.5640568 C 1.4389882,4.9664441 2.168867,4.2752741 2.1928485,4.2752741 c 0.01178,0 0.4138907,0.3698236 0.8935785,0.8218302 0.4796882,0.4520068 0.8963155,0.8386903 0.925839,0.8592972 0.068473,0.047793 -0.1427074,0.2429922 3.4664185,-3.2041009 2.1090999,-2.01441116 2.296657,-2.19200827 2.3149403,-2.19200827 0.013918,0 0.6470492,0.59958497 1.4817812,1.40326817 L 11.57639,2.2533496 11.214505,2.6071307 C 10.48715,3.3181956 8.9346173,4.8079065 5.8221681,7.7812697 5.0383678,8.5300443 4.3238901,9.2138945 4.2344397,9.3009369 l -0.162637,0.158259 z M 4.6911581,8.2410446 C 5.880848,7.1097147 10.355416,2.8222594 10.742996,2.4422756 L 10.9257,2.2631525 10.506253,1.8531269 C 10.275557,1.6276128 10.028907,1.3963802 9.958141,1.3392767 9.8216392,1.2291282 9.936954,1.3462499 10.562688,1.9532967 L 10.88116,2.2622571 7.4861564,5.5160251 C 5.6189047,7.3055973 4.081627,8.7697929 4.0699839,8.7697929 c -0.011643,0 -0.6813208,-0.6325958 -1.4881725,-1.4057685 L 1.1148082,5.958256 1.4770143,5.6101323 C 1.6762277,5.4186641 1.9214373,5.1865868 2.0219245,5.0944049 L 2.2046285,4.926801 3.1292611,5.812885 4.0538938,6.6989691 4.1280431,6.6300633 C 4.2793866,6.4894227 7.1904741,3.7011688 8.3537337,2.5826761 9.0158879,1.9460045 9.6055846,1.3826321 9.6641708,1.3307375 9.7227571,1.2788429 9.7646745,1.2303669 9.7573208,1.223013 9.7499669,1.2156592 9.6535712,1.2968258 9.5431079,1.4033833 9.4326446,1.5099407 8.2570036,2.6325606 6.9305725,3.898094 5.6041413,5.1636278 4.4175106,6.2960638 4.2936156,6.4146188 4.1697203,6.5331737 4.0586711,6.6265084 4.0468395,6.6220295 4.0350078,6.6175503 3.6485569,6.2562504 3.1880594,5.8191408 2.7275622,5.3820312 2.3149561,4.9944624 2.271157,4.9578767 L 2.191522,4.8913577 2.0884527,4.9772927 c -0.056688,0.047264 -0.303768,0.2815433 -0.5490664,0.5206205 -0.3180211,0.3099552 -0.441742,0.4457747 -0.4311676,0.473331 0.022486,0.058598 2.922699,2.8472702 2.9611548,2.8472702 0.00799,0 0.2877922,-0.2598611 0.6217846,-0.5774698 z"
     id="path935" />
  <path
     style="fill:#241c1c;stroke-width:0.0243605"
     d="M 3.3008526,8.7287021 C 2.3565104,7.8267808 0.79339016,6.3163016 0.58958831,6.1087447 L 0.43618027,5.9525101 0.84537393,5.5502843 C 1.4818721,4.9246246 2.1683422,4.2752741 2.1932688,4.2752741 c 0.012425,0 0.3480339,0.3069049 0.7457967,0.6820112 0.9235586,0.8709522 1.0783491,1.011046 1.1171111,1.011046 0.038418,0 0.431619,-0.3629199 1.5711072,-1.4501123 C 6.1029233,4.0644088 7.182704,3.0341564 8.0267966,2.2287693 8.8708892,1.4233822 9.613581,0.7171022 9.6772229,0.65925817 L 9.7929354,0.55408721 9.908648,0.65899764 c 0.172703,0.15658097 1.662607,1.58601626 1.662607,1.59512946 0,0.022024 -1.090758,1.0726071 -4.6285025,4.4580259 C 4.2590361,9.2803157 4.0924119,9.438982 4.0730175,9.4448314 4.0636741,9.4476494 3.7161998,9.1253912 3.3008526,8.7287021 Z M 4.212019,8.6917181 C 4.5804326,8.349086 9.7626543,3.38836 10.716619,2.4651344 L 10.9257,2.2627902 10.487211,1.8357391 c -0.24117,-0.234878 -0.471377,-0.4492543 -0.5115715,-0.4763916 -0.040195,-0.027137 -0.00731,0.014475 0.073082,0.092473 0.08039,0.077998 0.301081,0.2922778 0.490423,0.4761786 L 10.883404,2.262364 8.9933542,4.0727168 C 7.9538261,5.0684107 6.965779,6.0150984 6.7976933,6.1764672 6.6296075,6.3378361 6.2344702,6.716562 5.9196102,7.0180804 5.6047503,7.3195988 5.065105,7.8370826 4.7203988,8.1680443 4.3756923,8.4990061 4.0835313,8.7697929 4.0711523,8.7697929 c -0.012379,0 -0.683001,-0.6326324 -1.4902711,-1.4058499 L 1.1131175,5.9580933 1.476169,5.6096984 C 1.6758473,5.4180811 1.9214991,5.1859501 2.0220619,5.0938512 L 2.2049032,4.926399 3.1303374,5.8120758 4.0557717,6.6977525 4.165523,6.5932397 C 6.461078,4.4072463 9.752991,1.2423873 9.7311864,1.2423873 c -0.00843,0 -0.1103547,0.090557 -0.226489,0.2012374 C 9.3885632,1.5543053 8.2082826,2.6805704 6.8818514,3.9464361 5.5554202,5.2123016 4.379608,6.3339488 4.2689352,6.4389851 4.1582626,6.5440212 4.0580553,6.6263432 4.0462526,6.6219228 4.0344497,6.6175023 3.6536236,6.2620952 3.1999725,5.8321294 2.7463214,5.4021635 2.3339307,5.0145096 2.2835488,4.9706762 L 2.1919453,4.890979 2.064304,5.0016477 C 1.9941012,5.0625157 1.7464493,5.298735 1.5139663,5.5265793 1.1262068,5.9066022 1.0939915,5.9446658 1.1241977,5.9871052 1.1882222,6.0770594 4.0358526,8.818514 4.065266,8.818514 c 0.00573,0 0.071768,-0.057058 0.146753,-0.1267959 z"
     id="path937" />
  <path
     style="fill:#241c1c;stroke-width:0.0243605"
     d="M 3.3130329,8.7409488 C 2.3042052,7.7774036 0.85839255,6.3806641 0.62557811,6.1447103 L 0.43507828,5.9516417 0.86918348,5.5256414 C 1.5036402,4.9030304 2.1684698,4.2752741 2.1933935,4.2752741 c 0.011923,0 0.3305057,0.2904993 0.7079617,0.6455542 0.9103678,0.8563395 1.1210555,1.047503 1.1544891,1.047503 0.046168,0 0.2348,-0.1770334 2.9356295,-2.7551264 2.1964573,-2.0966417 2.7841535,-2.65291257 2.8027834,-2.65291257 0.015998,0 0.8077758,0.74842537 1.4462938,1.36710417 l 0.33921,0.3286715 -0.400112,0.3899385 C 10.624118,3.1874127 9.2647425,4.4919016 6.6260658,7.0157337 4.0049739,9.5227466 4.0792507,9.4520797 4.0661406,9.4512414 4.0605793,9.4508857 3.7216809,9.1312541 3.3130329,8.7409488 Z M 4.2246716,8.6784409 C 4.5472792,8.3739756 6.4599298,6.5501971 6.7235079,6.295714 6.8775883,6.1469503 7.6722085,5.3848429 8.4893308,4.6021423 10.564901,2.6140062 10.874414,2.3149971 10.895356,2.2777775 10.908035,2.2552426 10.777838,2.1145694 10.475419,1.8240503 10.234347,1.5924639 10.017795,1.3933935 9.9941927,1.3816716 c -0.023602,-0.011722 9.354e-4,0.019852 0.054528,0.070165 0.05359,0.050312 0.263684,0.2531793 0.466869,0.4508153 l 0.369426,0.3593382 -2.5124338,2.407373 C 6.9907442,5.9934178 5.4625237,7.4576736 4.9765371,7.9232643 4.4905505,8.3888551 4.0827566,8.7697929 4.0703286,8.7697929 4.0579006,8.7697929 3.3863834,8.1386543 2.5780683,7.3672626 1.7697532,6.5958709 1.3679203,6.2218733 1.6851065,6.5361569 c 0.5704965,0.565276 2.3615101,2.2819637 2.3810341,2.2822229 0.00556,7.31e-5 0.0769,-0.062899 0.158531,-0.1399389 z M 4.6161844,6.1625751 C 4.7770395,6.0081427 5.1552984,5.6458019 5.45676,5.3573737 8.274989,2.6609881 9.6711328,1.3154347 9.6711328,1.2957122 c 0,-0.0086 -0.084957,0.067446 -0.1887942,0.1689972 C 9.3785018,1.5662605 8.5590743,2.3494429 7.6613885,3.2051147 6.7637028,4.0607868 5.6784409,5.0960536 5.2496955,5.5057077 4.1464887,6.559791 4.0699091,6.6307825 4.045687,6.6218604 4.0337793,6.6174743 3.6639998,6.2734609 3.2239549,5.8573866 2.78391,5.4413123 2.3719475,5.0536304 2.3084825,4.9958716 L 2.1930916,4.8908558 2.1014179,4.970287 C 1.9625163,5.090639 1.2649709,5.7738536 1.1819252,5.8708892 1.141792,5.9177832 1.3098143,5.7643118 1.5553082,5.5298417 1.800802,5.2953715 2.0476678,5.0636234 2.1038987,5.014846 L 2.2061368,4.9261596 3.1310831,5.8115376 4.0560292,6.6969157 4.189875,6.5701389 C 4.2634904,6.5004114 4.4553296,6.3170078 4.6161844,6.1625751 Z"
     id="path939" />
</svg>
