<svg width="4" height="11" viewBox="0 0 4 11" fill="none" xmlns="http://www.w3.org/2000/svg">
<path d="M1.57795 6.92052L0.919953 2.94452V0.228516H3.10395V2.94452L2.45995 6.92052H1.57795ZM1.99795 10.1685C1.54995 10.1685 1.22795 10.0658 1.03195 9.86052C0.845287 9.65518 0.751953 9.40318 0.751953 9.10452V8.76852C0.751953 8.46985 0.845287 8.21785 1.03195 8.01252C1.22795 7.80718 1.54995 7.70452 1.99795 7.70452C2.44595 7.70452 2.76329 7.80718 2.94995 8.01252C3.14595 8.21785 3.24395 8.46985 3.24395 8.76852V9.10452C3.24395 9.40318 3.14595 9.65518 2.94995 9.86052C2.76329 10.0658 2.44595 10.1685 1.99795 10.1685Z" fill="white"/>
</svg>
